<mxfile host="app.diagrams.net" agent="Mozilla/5.0 (X11; Linux x86_64; rv:133.0) Gecko/20100101 Firefox/133.0" version="26.0.4">
  <diagram name="Page-1" id="Fss-B0lNS9tUIRTv5uwB">
    <mxGraphModel dx="582" dy="1184" grid="0" gridSize="10" guides="1" tooltips="1" connect="1" arrows="1" fold="1" page="1" pageScale="1" pageWidth="850" pageHeight="1100" math="0" shadow="0">
      <root>
        <mxCell id="0" />
        <mxCell id="1" parent="0" />
        <mxCell id="ITC72SHFmcSkKFFQ6kdV-1" value="us-east-2" style="points=[[0,0],[0.25,0],[0.5,0],[0.75,0],[1,0],[1,0.25],[1,0.5],[1,0.75],[1,1],[0.75,1],[0.5,1],[0.25,1],[0,1],[0,0.75],[0,0.5],[0,0.25]];outlineConnect=0;gradientColor=none;html=1;whiteSpace=wrap;fontSize=12;fontStyle=0;container=1;pointerEvents=0;collapsible=0;recursiveResize=0;shape=mxgraph.aws4.group;grIcon=mxgraph.aws4.group_region;strokeColor=#00A4A6;fillColor=none;verticalAlign=top;align=left;spacingLeft=30;fontColor=#147EBA;dashed=1;" vertex="1" parent="1">
          <mxGeometry x="28" y="282" width="494" height="208" as="geometry" />
        </mxCell>
        <mxCell id="ITC72SHFmcSkKFFQ6kdV-2" value="Simple Storage Service (S3)" style="sketch=0;points=[[0,0,0],[0.25,0,0],[0.5,0,0],[0.75,0,0],[1,0,0],[0,1,0],[0.25,1,0],[0.5,1,0],[0.75,1,0],[1,1,0],[0,0.25,0],[0,0.5,0],[0,0.75,0],[1,0.25,0],[1,0.5,0],[1,0.75,0]];outlineConnect=0;fontColor=#232F3E;fillColor=#7AA116;strokeColor=#ffffff;dashed=0;verticalLabelPosition=bottom;verticalAlign=top;align=center;html=1;fontSize=12;fontStyle=0;aspect=fixed;shape=mxgraph.aws4.resourceIcon;resIcon=mxgraph.aws4.s3;" vertex="1" parent="ITC72SHFmcSkKFFQ6kdV-1">
          <mxGeometry x="360" y="70" width="80" height="80" as="geometry" />
        </mxCell>
        <mxCell id="ITC72SHFmcSkKFFQ6kdV-6" style="edgeStyle=orthogonalEdgeStyle;rounded=0;orthogonalLoop=1;jettySize=auto;html=1;" edge="1" parent="ITC72SHFmcSkKFFQ6kdV-1" source="ITC72SHFmcSkKFFQ6kdV-3" target="ITC72SHFmcSkKFFQ6kdV-5">
          <mxGeometry relative="1" as="geometry" />
        </mxCell>
        <mxCell id="ITC72SHFmcSkKFFQ6kdV-3" value="EventBridge Scheduler" style="sketch=0;outlineConnect=0;fontColor=#232F3E;gradientColor=none;fillColor=#E7157B;strokeColor=none;dashed=0;verticalLabelPosition=bottom;verticalAlign=top;align=center;html=1;fontSize=12;fontStyle=0;aspect=fixed;pointerEvents=1;shape=mxgraph.aws4.eventbridge_scheduler;" vertex="1" parent="ITC72SHFmcSkKFFQ6kdV-1">
          <mxGeometry x="30" y="70" width="80" height="80" as="geometry" />
        </mxCell>
        <mxCell id="ITC72SHFmcSkKFFQ6kdV-7" style="edgeStyle=orthogonalEdgeStyle;rounded=0;orthogonalLoop=1;jettySize=auto;html=1;" edge="1" parent="ITC72SHFmcSkKFFQ6kdV-1" source="ITC72SHFmcSkKFFQ6kdV-5" target="ITC72SHFmcSkKFFQ6kdV-2">
          <mxGeometry relative="1" as="geometry" />
        </mxCell>
        <mxCell id="ITC72SHFmcSkKFFQ6kdV-5" value="AWS Lambda" style="sketch=0;points=[[0,0,0],[0.25,0,0],[0.5,0,0],[0.75,0,0],[1,0,0],[0,1,0],[0.25,1,0],[0.5,1,0],[0.75,1,0],[1,1,0],[0,0.25,0],[0,0.5,0],[0,0.75,0],[1,0.25,0],[1,0.5,0],[1,0.75,0]];outlineConnect=0;fontColor=#232F3E;fillColor=#ED7100;strokeColor=#ffffff;dashed=0;verticalLabelPosition=bottom;verticalAlign=top;align=center;html=1;fontSize=12;fontStyle=0;aspect=fixed;shape=mxgraph.aws4.resourceIcon;resIcon=mxgraph.aws4.lambda;" vertex="1" parent="ITC72SHFmcSkKFFQ6kdV-1">
          <mxGeometry x="190" y="70" width="80" height="80" as="geometry" />
        </mxCell>
        <mxCell id="ITC72SHFmcSkKFFQ6kdV-10" value="OpenWeather API" style="shape=image;html=1;verticalAlign=top;verticalLabelPosition=bottom;labelBackgroundColor=#ffffff;imageAspect=0;aspect=fixed;image=https://cdn2.iconfinder.com/data/icons/weather-color-2/500/weather-02-128.png" vertex="1" parent="1">
          <mxGeometry x="216" y="146" width="80" height="80" as="geometry" />
        </mxCell>
        <mxCell id="ITC72SHFmcSkKFFQ6kdV-11" style="edgeStyle=orthogonalEdgeStyle;rounded=0;orthogonalLoop=1;jettySize=auto;html=1;" edge="1" parent="1" source="ITC72SHFmcSkKFFQ6kdV-5">
          <mxGeometry relative="1" as="geometry">
            <mxPoint x="258" y="250.31999999999994" as="targetPoint" />
          </mxGeometry>
        </mxCell>
      </root>
    </mxGraphModel>
  </diagram>
</mxfile>
